<svg width="26" height="30" viewBox="0 0 26 30" xmlns="http://www.w3.org/2000/svg">
<path fill-rule="evenodd" clip-rule="evenodd" d="M16.9141 6.52174C16.9418 6.52174 16.9688 6.52992 16.9918 6.54525L18.8507 7.78453C18.8896 7.81049 18.913 7.8542 18.913 7.90101V22.099C18.913 22.1458 18.8896 22.1895 18.8507 22.2155L16.9918 23.4547C16.9688 23.4701 16.9418 23.4783 16.9141 23.4783H6.56957V23.4783C6.54337 23.4783 6.52174 23.4566 6.52174 23.4304V23.4304V6.56957V6.56957C6.52174 6.54337 6.54337 6.52174 6.56957 6.52174V6.52174H16.9141ZM5.86957 24.1783C5.86957 24.1521 5.84793 24.1304 5.82174 24.1304V24.1304H2.6087C1.16795 24.1304 0 22.9625 0 21.5217V8.47826C0 7.03752 1.16795 5.86957 2.6087 5.86957H5.82174V5.86957C5.84793 5.86957 5.86957 5.84793 5.86957 5.82174V5.82174V2.6087C5.86957 1.16795 7.03752 0 8.47826 0H16.9018C16.937 0 16.9709 0.013256 16.9967 0.0371278L25.3897 7.78451C25.4185 7.81101 25.4348 7.84831 25.4348 7.88738V22.1126C25.4348 22.1517 25.4185 22.189 25.3897 22.2155L16.9967 29.9629C16.9709 29.9867 16.937 30 16.9018 30H8.47826C7.03752 30 5.86957 28.832 5.86957 27.3913V24.1783V24.1783Z" fill="white"/>
</svg>
